<?xml version="1.0" encoding="UTF-8"?>
<svg xmlns="http://www.w3.org/2000/svg" xmlns:xlink="http://www.w3.org/1999/xlink" width="128pt" height="128pt" viewBox="0 0 128 128" version="1.1">
<g id="surface1">
<rect x="0" y="0" width="128" height="128" style="fill:rgb(80%,59.215686%,24.705882%);fill-opacity:1;stroke:none;"/>
<path style=" stroke:none;fill-rule:nonzero;fill:rgb(100%,100%,100%);fill-opacity:1;" d="M 91.148438 43.386719 L 91.148438 42.859375 C 91.109375 38.210938 87.351562 34.453125 82.707031 34.417969 L 45.171875 34.417969 C 40.527344 34.453125 36.769531 38.210938 36.730469 42.859375 L 36.730469 43.386719 C 36.769531 48.035156 40.527344 51.789062 45.171875 51.828125 L 78.464844 51.828125 C 86.664062 51.8125 94.488281 55.269531 100 61.339844 C 100.402344 61.734375 100.660156 62.136719 101.0625 62.53125 C 108.207031 71.261719 109.683594 83.332031 104.855469 93.527344 C 100.023438 103.726562 89.75 110.226562 78.464844 110.230469 L 49.527344 110.230469 C 33.402344 110.226562 20.332031 97.152344 20.332031 81.027344 L 36.84375 81.027344 C 36.84375 88.019531 42.511719 93.6875 49.507812 93.6875 L 78.445312 93.6875 C 85.4375 93.6875 91.105469 88.019531 91.105469 81.027344 C 91.105469 74.03125 85.4375 68.363281 78.445312 68.363281 L 45.171875 68.363281 C 38.703125 68.375 32.488281 65.847656 27.859375 61.328125 C 26.664062 60.125 25.601562 58.796875 24.695312 57.367188 C 21.820312 53.214844 20.296875 48.273438 20.332031 43.226562 L 20.332031 42.695312 C 20.320312 28.957031 31.433594 17.800781 45.171875 17.757812 L 82.691406 17.757812 C 96.457031 17.808594 107.601562 28.960938 107.640625 42.726562 L 107.640625 43.253906 Z M 91.148438 43.386719 "/>
</g>
</svg>
