<svg xmlns="http://www.w3.org/2000/svg" viewBox="0 0 26.63 27.85"><defs><style>.cls-1{fill:#202020;}.cls-2{fill:#cc963f;}.cls-3{fill:#fff;}</style></defs><title>Fichier 7@1x</title><g id="Calque_2" data-name="Calque 2"><g id="Calque_1-2" data-name="Calque 1"><path class="cls-1" d="M10.9,14.05c0-.17.62-.54,1.17-.3.25.11.54.37.48.5S10.92,14.32,10.9,14.05Z"/><path class="cls-2" d="M13.31,15.39v.54h0v-.54Z"/><path class="cls-2" d="M26.63,13a13.37,13.37,0,0,1-.32,2.88c-.07.35-.57,2.89-1.14,2.87-.14,0-.17-.15-.88-1-.42-.5-.54-.62-.66-.59s-.3.72-.36,1.05c-.22,1.31-1.47,1.89-2.71,2.93-2.46,2.06-3.46,4.73-3.89,4.51-.11-.06-.08-.22-.34-.88a3.17,3.17,0,0,0-.32-.58c-.16-.25-.49-.72-.76-.66s-.29.28-.51.95c-.32,1-.39,1.43-.53,1.85a4.64,4.64,0,0,1-.88,1.5h0a4.64,4.64,0,0,1-.88-1.5c-.14-.42-.21-.83-.53-1.85-.22-.67-.32-.91-.51-.95s-.6.41-.76.66a3.17,3.17,0,0,0-.32.58c-.26.66-.23.82-.34.88-.43.22-1.43-2.45-3.89-4.51-1.24-1-2.49-1.62-2.71-2.93-.06-.33-.1-1-.36-1.05s-.24.09-.66.59c-.71.85-.74,1-.88,1C.89,18.79.39,16.25.32,15.9A13.37,13.37,0,0,1,0,13,14.68,14.68,0,0,1,.76,8.31c.13-.39,2-5.84,6-7.63A9.72,9.72,0,0,1,10.4,0a2,2,0,0,1,1.23.24c.81.51.88,1.73.93,2.42,0,.52.15,2.45-.8,3-.53.29-.83-.19-1.8,0A3.64,3.64,0,0,0,7.71,7a3.52,3.52,0,0,0-.83,2.56c.14,1.13,1,2.32,1.67,2.32.18,0,.46-.07.62.1a.67.67,0,0,1,.08.55c-.11.81-.55,1-.7,1.6a1.86,1.86,0,0,0,.53,1.78,1.63,1.63,0,0,0,1.05.32c.72,0,.95-.37,1.9-.64a2.66,2.66,0,0,1,1.27-.19h0v.54h0a2.87,2.87,0,0,0-.93.19c-.38.13-.36.19-.79.34a4.5,4.5,0,0,1-.69.19c-.5.08-.7,0-.76.09s.22.63.63.93a4.19,4.19,0,0,0,2.31.49h.49a4.19,4.19,0,0,0,2.31-.49c.41-.3.73-.76.63-.93s-.26,0-.76-.09a4.5,4.5,0,0,1-.69-.19c-.43-.15-.41-.21-.79-.34a2.87,2.87,0,0,0-.93-.19h0v-.54h0a2.66,2.66,0,0,1,1.27.19c1,.27,1.18.64,1.9.64a1.63,1.63,0,0,0,1.05-.32,1.86,1.86,0,0,0,.53-1.78c-.15-.62-.59-.79-.7-1.6a.67.67,0,0,1,.08-.55c.16-.17.44-.1.62-.1.72,0,1.53-1.19,1.67-2.32A3.52,3.52,0,0,0,18.92,7a3.64,3.64,0,0,0-2.25-1.41c-1-.15-1.27.33-1.8,0-.95-.51-.83-2.44-.8-3,0-.69.12-1.91.93-2.42A2,2,0,0,1,16.23,0a9.72,9.72,0,0,1,3.61.68c4,1.79,5.9,7.24,6,7.63A14.68,14.68,0,0,1,26.63,13Z"/><polygon class="cls-3" points="13.31 15.85 13.31 15.85 13.31 15.84 13.31 15.85"/><polygon class="cls-3" points="13.32 15.84 13.32 15.85 13.31 15.85 13.32 15.84"/><circle class="cls-1" cx="10.12" cy="8.86" r="2"/><path class="cls-1" d="M15.73,14.05c0-.17-.62-.54-1.17-.3-.25.11-.53.37-.48.5S15.71,14.32,15.73,14.05Z"/><path class="cls-2" d="M13.31,15.39v.54h0v-.54Z"/><polygon class="cls-3" points="13.32 15.85 13.32 15.85 13.32 15.84 13.32 15.85"/><polygon class="cls-3" points="13.31 15.84 13.31 15.85 13.32 15.85 13.31 15.84"/><circle class="cls-1" cx="16.52" cy="8.86" r="2"/></g></g></svg>